<?xml version="1.0" encoding="UTF-8" standalone="no"?>
<svg
   xmlns:dc="http://purl.org/dc/elements/1.1/"
   xmlns:cc="http://creativecommons.org/ns#"
   xmlns:rdf="http://www.w3.org/1999/02/22-rdf-syntax-ns#"
   xmlns:svg="http://www.w3.org/2000/svg"
   xmlns="http://www.w3.org/2000/svg"
   xmlns:sodipodi="http://sodipodi.sourceforge.net/DTD/sodipodi-0.dtd"
   xmlns:inkscape="http://www.inkscape.org/namespaces/inkscape"
   width="106.07806mm"
   height="231.2796mm"
   viewBox="0 0 106.07807 231.2796"
   version="1.1"
   id="svg8"
   inkscape:version="0.92.3 (2405546, 2018-03-11)"
   sodipodi:docname="femme_qui_danse.svg"
   >
  <defs
     id="defs2" />
  <sodipodi:namedview
     id="base"
     pagecolor="#ffffff"
     bordercolor="#666666"
     borderopacity="1.0"
     inkscape:pageopacity="0.0"
     inkscape:pageshadow="2"
     inkscape:zoom="0.49497475"
     inkscape:cx="240.83445"
     inkscape:cy="564.60219"
     inkscape:document-units="mm"
     inkscape:current-layer="layer1"
     showgrid="false"
     inkscape:snap-global="false"
     fit-margin-top="0"
     fit-margin-left="0"
     fit-margin-right="0"
     fit-margin-bottom="0"
     inkscape:window-width="1600"
     inkscape:window-height="877"
     inkscape:window-x="-8"
     inkscape:window-y="-8"
     inkscape:window-maximized="1" />
  <metadata
     id="metadata5">
    <rdf:RDF>
      <cc:Work
         rdf:about="">
        <dc:format>image/svg+xml</dc:format>
        <dc:type
           rdf:resource="http://purl.org/dc/dcmitype/StillImage" />
        <dc:title></dc:title>
      </cc:Work>
    </rdf:RDF>
  </metadata>
  <g
     inkscape:label="Calque 1"
     inkscape:groupmode="layer"
     id="layer1"
     transform="translate(-17.241164,-18.237548)">
    <path
       style="fill:none;stroke:#ffffff;stroke-width:1.16499996;stroke-linecap:butt;stroke-linejoin:miter;stroke-miterlimit:4;stroke-dasharray:none;stroke-opacity:1"
       d="m 104.10148,72.226325 c 0,0 3.80859,-2.338607 7.08264,0.200454 3.27405,2.539061 1.06908,7.082642 1.06908,7.082642 0,0 -2.40542,3.407687 -7.95127,5.746294 0,0 9.88898,2.539062 11.55941,6.080383 0,0 2.73951,6.013565 -1.40316,18.040692 0,0 4.94448,9.68852 5.67947,21.98292 l 2.60588,16.9048"
       id="path3859"
       inkscape:connector-curvature="0"
       sodipodi:nodetypes="cscccc" />
    <path
       style="fill:none;stroke:#ffffff;stroke-width:1.16499996;stroke-linecap:butt;stroke-linejoin:miter;stroke-miterlimit:4;stroke-dasharray:none;stroke-opacity:1"
       d="m 115.19317,141.91685 c 0,0 -0.46773,4.54359 4.87766,8.95353 0,0 0.93545,0.53454 -1.26952,3.47451"
       id="path3861"
       inkscape:connector-curvature="0" />
    <path
       style="fill:none;stroke:#ffffff;stroke-width:1.16499996;stroke-linecap:butt;stroke-linejoin:miter;stroke-miterlimit:4;stroke-dasharray:none;stroke-opacity:1"
       d="m 97.21929,74.899022 c 0,0 -5.011304,1.202713 -5.612659,5.746294 0,0 -1.069078,2.271792 2.071339,4.009044 0,0 3.474503,1.5368 6.88219,-0.601356"
       id="path3863"
       inkscape:connector-curvature="0" />
    <path
       style="fill:none;stroke:#ffffff;stroke-width:1.16499996;stroke-linecap:butt;stroke-linejoin:miter;stroke-miterlimit:4;stroke-dasharray:none;stroke-opacity:1"
       d="m 93.677969,84.65436 c 0,0 -1.737251,9.421249 -6.347653,8.418988"
       id="path3865"
       inkscape:connector-curvature="0" />
    <path
       style="fill:none;stroke:#ffffff;stroke-width:1.16499996;stroke-linecap:butt;stroke-linejoin:miter;stroke-miterlimit:4;stroke-dasharray:none;stroke-opacity:1"
       d="m 80.036457,94.215772 c 0,0 -2.126115,-0.377976 -6.236607,1.370163 0,0 -5.764136,-1.086679 -11.008555,2e-6 0,0 -7.087054,2.740327 -18.331846,-3.354539 0,0 -1.133928,-1.74814 -1.653645,-3.543526"
       id="path3867"
       inkscape:connector-curvature="0" />
    <path
       style="fill:none;stroke:#ffffff;stroke-width:1.16499996;stroke-linecap:butt;stroke-linejoin:miter;stroke-miterlimit:4;stroke-dasharray:none;stroke-opacity:1"
       d="m 111.81889,121.37051 c 0,0 -3.04019,-1.40317 -1.73725,-4.04245 0,0 2.00452,-1.30294 -0.10023,-4.07586 0,0 -3.87541,-1.40317 -3.0736,-3.67496 0,0 -0.30068,-1.77066 1.60362,-2.80633"
       id="path3869"
       inkscape:connector-curvature="0" />
    <path
       style="fill:none;stroke:#ffffff;stroke-width:1.16499996;stroke-linecap:butt;stroke-linejoin:miter;stroke-miterlimit:4;stroke-dasharray:none;stroke-opacity:1"
       d="m 39.781993,91.144716 c 0,0 4.393975,1.653646 1.842635,4.771948 0,0 -0.47247,0.425225 -1.511905,0.283484 0,0 -1.74814,1.27567 -1.842634,1.889881 0,0 -0.94494,-0.708705 -1.133928,-1.511904 0,0 -0.850447,-0.04725 -1.181176,0.708705 0,0 -0.141741,2.456845 0.236235,2.645833 0,0 1.370164,1.133927 5.008185,-0.661458 0,0 5.291667,-4.346726 11.008556,0.04725 0,0 8.863126,3.710685 15.077143,2.708425 0,0 13.229841,1.73725 18.307962,-1.67044 0,0 1.80407,-0.601352 1.002261,1.20272 0,0 -3.875408,2.60588 -2.739513,4.6104 0,0 -0.534539,2.53906 5.144939,6.21401 0,0 3.541321,6.01357 -0.334087,13.49711"
       id="path3871"
       inkscape:connector-curvature="0" />
    <path
       style="fill:none;stroke:#ffffff;stroke-width:1.16499996;stroke-linecap:butt;stroke-linejoin:miter;stroke-miterlimit:4;stroke-dasharray:none;stroke-opacity:1"
       d="m 100.29289,164.16704 c 0,0 0.86863,-3.4745 4.40995,-1.06908 0,0 -0.46772,3.34088 2.00452,7.21628 0,0 4.07586,3.34087 4.54358,6.61492 0,0 1.1359,4.00905 -0.46772,5.07813 0,0 -2.6727,2.27179 -7.34991,-4.07586 0,0 1.73725,-5.94676 -3.14042,-13.76439 z"
       id="path3873"
       inkscape:connector-curvature="0" />
    <path
       style="fill:none;stroke:#ffffff;stroke-width:1.16499996;stroke-linecap:butt;stroke-linejoin:miter;stroke-miterlimit:4;stroke-dasharray:none;stroke-opacity:1"
       d="m 73.894343,140.42336 c 0,0 7.370538,-0.47247 12.000746,7.37054 0,0 8.031994,11.52827 8.220983,13.22917 0,0 1.766868,4.21305 6.176818,3.14397"
       id="path3875"
       inkscape:connector-curvature="0" />
    <path
       style="fill:none;stroke:#ffffff;stroke-width:1.16499996;stroke-linecap:butt;stroke-linejoin:miter;stroke-miterlimit:4;stroke-dasharray:none;stroke-opacity:1"
       d="m 103.56547,177.55952 c 0,0 -4.346721,-6.14211 -10.866811,-9.63839 0,0 -9.827379,-7.18155 -11.622766,-9.26042 0,0 -10.866816,-8.69345 -12.284226,-12.00074 0,0 -4.535715,-3.02381 -1.133929,-8.50446 0,0 3.49628,-6.99256 12.000744,-7.55953 0,0 6.709078,-1.6064 12.662203,-0.56696 0,0 8.031995,0.18899 12.189735,-2.92932"
       id="path3877"
       inkscape:connector-curvature="0" />
    <path
       style="fill:none;stroke:#ffffff;stroke-width:1.16499996;stroke-linecap:butt;stroke-linejoin:miter;stroke-miterlimit:4;stroke-dasharray:none;stroke-opacity:1"
       d="m 107.15625,107.72842 c 0,0 -5.10268,-0.66146 -3.02381,6.80357 0,0 7.46503,13.32366 7.9375,15.68602 0,0 2.07887,6.89807 -2.92931,9.82738 0,0 -10.772326,7.55952 -22.3006,5.10268"
       id="path3879"
       inkscape:connector-curvature="0"
       sodipodi:nodetypes="cccc" />
    <path
       style="fill:none;stroke:#ffffff;stroke-width:1.16499996;stroke-linecap:butt;stroke-linejoin:miter;stroke-miterlimit:4;stroke-dasharray:none;stroke-opacity:1"
       d="m 110.18006,139.28943 c 0,0 -7.27604,13.79613 -5.38616,22.39509"
       id="path3881"
       inkscape:connector-curvature="0" />
    <path
       style="fill:none;stroke:#ffffff;stroke-width:1.16499996;stroke-linecap:butt;stroke-linejoin:miter;stroke-miterlimit:4;stroke-dasharray:none;stroke-opacity:1"
       d="m 90.147321,145.43155 c 0,0 1.133928,7.9375 1.133928,9.82738"
       id="path3883"
       inkscape:connector-curvature="0" />
    <path
       style="fill:none;stroke:#ffffff;stroke-width:1.16499996;stroke-linecap:butt;stroke-linejoin:miter;stroke-miterlimit:4;stroke-dasharray:none;stroke-opacity:1"
       d="m 95.682489,170.04697 c 0,0 -0.935442,14.56619 1.870888,20.57976 0,0 2.672693,10.69078 2.271792,13.0962 0,0 0.668171,14.29892 -3.340869,20.31249 0,0 -2.746205,6.34628 2.828944,14.37827"
       id="path3885"
       inkscape:connector-curvature="0" />
    <path
       style="fill:none;stroke:#ffffff;stroke-width:1.16499996;stroke-linecap:butt;stroke-linejoin:miter;stroke-miterlimit:4;stroke-dasharray:none;stroke-opacity:1"
       d="m 107.43973,181.90625 c 0,0 2.36235,8.03199 1.70089,11.43378 0,0 0.18899,12.28423 -1.79538,15.49702 0,0 -2.17336,8.032 -0.85045,9.92188"
       id="path3887"
       inkscape:connector-curvature="0" />
    <path
       style="fill:none;stroke:#ffffff;stroke-width:1.16499996;stroke-linecap:butt;stroke-linejoin:miter;stroke-miterlimit:4;stroke-dasharray:none;stroke-opacity:1"
       d="m 105.54985,243.23288 c 0,0 0.66146,-7.843 1.88988,-9.73288 0,0 3.30729,-8.31548 0.37798,-12.94568 0,0 -1.13393,-3.59078 -3.77976,-0.66146 0,0 -4.724706,4.91369 -3.40179,11.0558 0,0 -0.47247,2.92932 0.18899,4.25223 0,0 2.92931,3.87426 2.07887,7.84301 z"
       id="path3889"
       inkscape:connector-curvature="0" />
    <path
       style="fill:none;stroke:#ffffff;stroke-width:1.16499996;stroke-linecap:butt;stroke-linejoin:miter;stroke-miterlimit:4;stroke-dasharray:none;stroke-opacity:1"
       d="M 105.30419,18.237882 105.17187,249.2805 17.773423,52.715651"
       id="path3891"
       inkscape:connector-curvature="0" />
  </g>
</svg>
